<?xml version="1.0" encoding="UTF-8"?>
<svg version="1.1" xmlns="http://www.w3.org/2000/svg" width="64" height="64">
<path d="M0 0 C1.76947998 -0.00717545 1.76947998 -0.00717545 3.57470703 -0.01449585 C6.06609431 -0.01789477 8.55752619 -0.00869315 11.04882812 0.01220703 C14.86168899 0.03896907 18.67160568 0.01245507 22.484375 -0.01953125 C24.9062565 -0.01622716 27.32813616 -0.00982094 29.75 0 C31.45953857 -0.01518173 31.45953857 -0.01518173 33.20361328 -0.03067017 C37.84071245 0.03797919 40.99638184 0.1768009 45.09130859 2.44775391 C47.86172612 7.44330284 47.58900525 12.16526093 47.5390625 17.7890625 C47.54384613 18.96871582 47.54862976 20.14836914 47.55355835 21.36376953 C47.55695727 23.85515681 47.54775565 26.34658869 47.52685547 28.83789062 C47.50009343 32.65075149 47.52660743 36.46066818 47.55859375 40.2734375 C47.55528966 42.695319 47.54888344 45.11719866 47.5390625 47.5390625 C47.55424423 49.24860107 47.55424423 49.24860107 47.56973267 50.99267578 C47.50108331 55.62977495 47.3622616 58.78544434 45.09130859 62.88037109 C40.09575966 65.65078862 35.37380157 65.37806775 29.75 65.328125 C27.98052002 65.33530045 27.98052002 65.33530045 26.17529297 65.34262085 C23.68390569 65.34601977 21.19247381 65.33681815 18.70117188 65.31591797 C14.88831101 65.28915593 11.07839432 65.31566993 7.265625 65.34765625 C4.8437435 65.34435216 2.42186384 65.33794594 0 65.328125 C-1.70953857 65.34330673 -1.70953857 65.34330673 -3.45361328 65.35879517 C-8.09071245 65.29014581 -11.24638184 65.1513241 -15.34130859 62.88037109 C-18.11172612 57.88482216 -17.83900525 53.16286407 -17.7890625 47.5390625 C-17.79384613 46.35940918 -17.79862976 45.17975586 -17.80355835 43.96435547 C-17.80695727 41.47296819 -17.79775565 38.98153631 -17.77685547 36.49023438 C-17.75009343 32.67737351 -17.77660743 28.86745682 -17.80859375 25.0546875 C-17.80528966 22.632806 -17.79888344 20.21092634 -17.7890625 17.7890625 C-17.79918365 16.64937012 -17.80930481 15.50967773 -17.81973267 14.33544922 C-17.75108331 9.69835005 -17.6122616 6.54268066 -15.34130859 2.44775391 C-10.34575966 -0.32266362 -5.62380157 -0.04994275 0 0 Z M-1.125 13.6640625 C-1.32330404 18.27196192 -1.46815655 22.87736399 -1.56445312 27.48852539 C-1.60459962 29.05537175 -1.65913434 30.62191992 -1.72851562 32.18774414 C-2.45029227 40.98022514 -2.45029227 40.98022514 0.515625 48.86572266 C3.59263113 50.95586005 5.61113047 51.79933029 9.35229492 51.39892578 C13.87024766 50.08284742 17.67485558 47.63534606 21.6875 45.2265625 C22.57115234 44.74251953 23.45480469 44.25847656 24.36523438 43.75976562 C26.91222466 42.21977072 28.90707941 40.9020566 30.875 38.6640625 C31.6252583 35.19852266 31.449843 32.14657696 30.875 28.6640625 C28.25105694 27.82726973 25.62595616 26.99449308 23 26.1640625 C22.25363281 25.92558594 21.50726563 25.68710937 20.73828125 25.44140625 C16.88257933 24.13635835 16.88257933 24.13635835 12.875 23.6640625 C13.35346065 27.97020839 14.53426381 29.91286799 17.875 32.6640625 C18.865 32.9940625 19.855 33.3240625 20.875 33.6640625 C14.44 37.1290625 14.44 37.1290625 7.875 40.6640625 C7.875 32.7440625 7.875 24.8240625 7.875 16.6640625 C4.905 15.6740625 1.935 14.6840625 -1.125 13.6640625 Z " fill="#000000" transform="translate(17.125,-0.6640625)"/>
</svg>
