<?xml version="1.0" encoding="UTF-8"?>
<svg version="1.1" xmlns="http://www.w3.org/2000/svg" id="bender" width="100" height="100" fill="none" viewBox="0 0 80 80">
<path d="M0 0 C0.99 0 1.98 0 3 0 C3.06058594 0.74765625 3.12117188 1.4953125 3.18359375 2.265625 C3.30927734 3.74289063 3.30927734 3.74289063 3.4375 5.25 C3.51871094 6.22453125 3.59992187 7.1990625 3.68359375 8.203125 C3.95074584 10.56461753 4.35371968 12.71901065 5 15 C5.73992188 15.09796875 6.47984375 15.1959375 7.2421875 15.296875 C12.62272605 16.66868369 16.51037283 21.11313892 19.875 25.375 C21.21980534 28.51287912 21.75112432 31.60061195 22.3984375 34.94140625 C22.8776939 37.21076945 22.8776939 37.21076945 25.0625 39 C27.72198068 41.74527038 27.83878863 44.07573182 28.109375 47.80859375 C27.95598185 50.88193517 26.9651082 52.67098288 25 55 C24.01 55.495 24.01 55.495 23 56 C22.67 61.61 22.34 67.22 22 73 C22.99 73.33 23.98 73.66 25 74 C24 77 24 77 22.15649414 77.93823242 C15.16698932 80.03389196 8.70758479 80.42218746 1.4375 80.3125 C0.36564453 80.31572266 -0.70621094 80.31894531 -1.81054688 80.32226562 C-15.28406488 80.2316181 -15.28406488 80.2316181 -20 78 C-21.24047852 75.9230957 -21.24047852 75.9230957 -22 74 C-20.515 73.505 -20.515 73.505 -19 73 C-19.06009392 70.24769852 -19.14712621 67.5007556 -19.25 64.75 C-19.26417969 63.97269531 -19.27835938 63.19539063 -19.29296875 62.39453125 C-19.47403792 57.59028111 -19.47403792 57.59028111 -21.984375 53.578125 C-22.64953125 53.05734375 -23.3146875 52.5365625 -24 52 C-25.53214888 48.93570224 -25.22938548 46.3834358 -25 43 C-22.8 38.4 -22.8 38.4 -20 37 C-19.53260651 35.17846922 -19.53260651 35.17846922 -19.25 33 C-18.00048733 26.92678724 -15.2022975 21.40172312 -10.15625 17.6171875 C-8.48316585 16.66012665 -6.74327308 15.82229862 -5 15 C-4.01 14.34 -3.02 13.68 -2 13 C-1.45321384 10.41064491 -1.45321384 10.41064491 -1.375 7.5 C-1.07988166 2.15976331 -1.07988166 2.15976331 0 0 Z " fill="#20201E" transform="translate(40,0)"/>
<path d="M0 0 C0.99 0 1.98 0 3 0 C3.06058594 0.74765625 3.12117188 1.4953125 3.18359375 2.265625 C3.30927734 3.74289063 3.30927734 3.74289063 3.4375 5.25 C3.51871094 6.22453125 3.59992187 7.1990625 3.68359375 8.203125 C3.95074584 10.56461753 4.35371968 12.71901065 5 15 C6.0209375 15.061875 6.0209375 15.061875 7.0625 15.125 C11.25679113 16.37436332 14.10893632 18.74268296 17 22 C17.9375 24.875 17.9375 24.875 18 27 C16.68 27.33 15.36 27.66 14 28 C14.495 32.455 14.495 32.455 15 37 C16.98 37 18.96 37 21 37 C21 37.33 21 37.66 21 38 C19.86981445 38.01981934 18.73962891 38.03963867 17.57519531 38.06005859 C13.37803036 38.1361888 9.18120874 38.22489479 4.984375 38.31738281 C3.16868879 38.35564191 1.35292759 38.39050017 -0.46289062 38.421875 C-3.07449123 38.4675923 -5.68557688 38.52557536 -8.296875 38.5859375 C-9.10743347 38.59748871 -9.91799194 38.60903992 -10.75311279 38.62094116 C-16.20058756 38.71129106 -16.20058756 38.71129106 -21 41 C-22.42662219 43.85324437 -22.31033868 45.83454549 -22 49 C-20.12230858 51.84920053 -20.12230858 51.84920053 -18 54 C-20.23288365 53.61502006 -21.83656302 53.10506663 -23.75 51.875 C-25.74090305 48.88864543 -25.361727 46.49669429 -25 43 C-22.8 38.4 -22.8 38.4 -20 37 C-19.53260651 35.17846922 -19.53260651 35.17846922 -19.25 33 C-18.00048733 26.92678724 -15.2022975 21.40172312 -10.15625 17.6171875 C-8.48316585 16.66012665 -6.74327308 15.82229862 -5 15 C-4.01 14.34 -3.02 13.68 -2 13 C-1.45321384 10.41064491 -1.45321384 10.41064491 -1.375 7.5 C-1.07988166 2.15976331 -1.07988166 2.15976331 0 0 Z " fill="#CBCBCB" transform="translate(40,0)"/>
<path d="M0 0 C1.65 0 3.3 0 5 0 C4.125 4.75 4.125 4.75 3 7 C3.3700415 6.51321777 3.74008301 6.02643555 4.12133789 5.52490234 C6.77557543 3.37046859 8.66989059 3.61208253 12.05859375 3.6015625 C13.24904297 3.59769531 14.43949219 3.59382813 15.66601562 3.58984375 C17.53290039 3.60724609 17.53290039 3.60724609 19.4375 3.625 C20.67822266 3.61339844 21.91894531 3.60179687 23.19726562 3.58984375 C24.98487305 3.59564453 24.98487305 3.59564453 26.80859375 3.6015625 C27.89970459 3.60494629 28.99081543 3.60833008 30.11499023 3.61181641 C33.34366079 4.04624022 34.73920662 4.67643477 37 7 C37.5 10.4375 37.5 10.4375 37 14 C34.8771961 16.80894063 33.71017556 17.87647501 30.20678711 18.48583984 C29.1575708 18.47762207 28.10835449 18.4694043 27.02734375 18.4609375 C25.88072266 18.45707031 24.73410156 18.45320313 23.55273438 18.44921875 C22.35970703 18.42472656 21.16667969 18.40023437 19.9375 18.375 C18.74060547 18.37371094 17.54371094 18.37242188 16.31054688 18.37109375 C7.42158036 18.28105357 7.42158036 18.28105357 4 16 C3.67 16.66 3.34 17.32 3 18 C2.01 18 1.02 18 0 18 C0 12.06 0 6.12 0 0 Z " fill="#D8D79A" transform="translate(22,56)"/>
<path d="M0 0 C3.75714372 3.0910573 4.06864689 6.7324243 5.05859375 11.30859375 C6.14944185 14.42724245 7.67507897 15.71212951 10 18 C11.39087441 22.24862729 11.47763136 25.90827119 9.6875 30 C8 32 8 32 6 33 C5.67 38.61 5.34 44.22 5 50 C5.99 50.33 6.98 50.66 8 51 C7 54 7 54 5.15649414 54.93823242 C-1.83301068 57.03389196 -8.29241521 57.42218746 -15.5625 57.3125 C-16.63435547 57.31572266 -17.70621094 57.31894531 -18.81054688 57.32226562 C-25.17368228 57.27945554 -30.84557487 56.62094513 -37 55 C-37 54.67 -37 54.34 -37 54 C-34.36 54 -31.72 54 -29 54 C-30.65 53.67 -32.3 53.34 -34 53 C-32.02 52.505 -32.02 52.505 -30 52 C-30 51.34 -30 50.68 -30 50 C-29.17798096 50.01571045 -28.35596191 50.0314209 -27.5090332 50.04760742 C-23.77692572 50.11005073 -20.04492828 50.14902136 -16.3125 50.1875 C-15.01892578 50.21263672 -13.72535156 50.23777344 -12.39257812 50.26367188 C-11.14541016 50.27333984 -9.89824219 50.28300781 -8.61328125 50.29296875 C-7.46641846 50.3086792 -6.31955566 50.32438965 -5.13793945 50.34057617 C-1.61802604 49.95854247 0.25026331 49.21573352 3 47 C3.43617622 44.18741539 3.6102234 41.86813363 3.5625 39.0625 C3.47510079 31.59322928 3.47510079 31.59322928 5.98046875 28.76171875 C6.64691406 28.18035156 7.31335938 27.59898438 8 27 C8.68116938 24.89061935 8.68116938 24.89061935 8.75 22.75 C8.8325 21.5125 8.915 20.275 9 19 C8.34 19 7.68 19 7 19 C7 18.34 7 17.68 7 17 C-13.295 16.505 -13.295 16.505 -34 16 C-34 15.67 -34 15.34 -34 15 C-23.44 14.67 -12.88 14.34 -2 14 C-2.495 9.545 -2.495 9.545 -3 5 C-2.01 4.67 -1.02 4.34 0 4 C0 2.68 0 1.36 0 0 Z " fill="#2E2E2E" transform="translate(57,23)"/>
<path d="M0 0 C0.33 0 0.66 0 1 0 C1.36666667 7.33333333 1.36666667 7.33333333 -0.375 10.5 C-2 12 -2 12 -4 12 C-4 17.28 -4 22.56 -4 28 C-4.99 28 -5.98 28 -7 28 C-6.9071875 26.329375 -6.9071875 26.329375 -6.8125 24.625 C-6.874375 23.42875 -6.93625 22.2325 -7 21 C-11.97473137 17.68351242 -17.65478544 18.58964496 -23.5 18.5625 C-25.37365234 18.51319336 -25.37365234 18.51319336 -27.28515625 18.46289062 C-28.48011719 18.45580078 -29.67507812 18.44871094 -30.90625 18.44140625 C-32.55077148 18.42122437 -32.55077148 18.42122437 -34.22851562 18.40063477 C-37.20742984 18.72308259 -37.20742984 18.72308259 -38.75585938 21.40991211 C-39.16642578 22.26464111 -39.57699219 23.11937012 -40 24 C-40.66 24.66 -41.32 25.32 -42 26 C-41.25 20.25 -41.25 20.25 -39 18 C-38.3574765 15.93125966 -38.3574765 15.93125966 -38 14 C-39.65 14 -41.3 14 -43 14 C-43 19.94 -43 25.88 -43 32 C-42.01 32 -41.02 32 -40 32 C-39.67 31.01 -39.34 30.02 -39 29 C-38.6596875 30.2065625 -38.6596875 30.2065625 -38.3125 31.4375 C-37.879375 32.283125 -37.44625 33.12875 -37 34 C-34.45224694 34.89386164 -34.45224694 34.89386164 -32 35 C-32 35.33 -32 35.66 -32 36 C-38.93 35.505 -38.93 35.505 -46 35 C-46 33.68 -46 32.36 -46 31 C-45.34 31 -44.68 31 -44 31 C-44.08672746 28.20677782 -44.19355357 25.41687472 -44.3125 22.625 C-44.34633789 21.43390625 -44.34633789 21.43390625 -44.38085938 20.21875 C-44.47785075 18.13784419 -44.72994825 16.06558668 -45 14 C-45.99 13.34 -46.98 12.68 -48 12 C-47.67 11.34 -47.34 10.68 -47 10 C-46.67 10.33 -46.34 10.66 -46 11 C-40.37295154 11.29284376 -34.74331503 11.31410736 -29.109375 11.35009766 C-27.21016164 11.36663794 -25.31101004 11.39390259 -23.41210938 11.43212891 C-20.67545235 11.4869574 -17.94025768 11.50878247 -15.203125 11.5234375 C-13.93411346 11.55744156 -13.93411346 11.55744156 -12.63946533 11.59213257 C-8.28713583 11.57657322 -6.53513249 11.41150081 -2.97558594 8.67431641 C-0.77002376 5.68868516 -0.25599774 3.66930095 0 0 Z " fill="#3E3E3E" transform="translate(65,42)"/>
<path d="M0 0 C2.69620384 1.41576727 3.35871523 2.34869384 5 5 C5 5.66 5 6.32 5 7 C4.01 7 3.02 7 2 7 C2.33 9.97 2.66 12.94 3 16 C-4.26 16 -11.52 16 -19 16 C-19 5 -19 5 -17.375 1.8125 C-11.82884684 -1.16598966 -6.14128986 -0.93804905 0 0 Z " fill="#787878" transform="translate(52,21)"/>
<path d="M0 0 C4.47915328 -0.02886338 8.95828291 -0.04675187 13.4375 -0.0625 C14.71689453 -0.07087891 15.99628906 -0.07925781 17.31445312 -0.08789062 C19.13686523 -0.09272461 19.13686523 -0.09272461 20.99609375 -0.09765625 C22.12200928 -0.10289307 23.2479248 -0.10812988 24.40795898 -0.11352539 C27 0 27 0 28 1 C28.04092937 3.33297433 28.04241723 5.66705225 28 8 C26.02 8 24.04 8 22 8 C22 7.34 22 6.68 22 6 C21.11477661 6.00785522 21.11477661 6.00785522 20.21166992 6.01586914 C17.53695745 6.03666047 14.86226199 6.04966701 12.1875 6.0625 C11.25873047 6.07087891 10.32996094 6.07925781 9.37304688 6.08789062 C8.48037109 6.09111328 7.58769531 6.09433594 6.66796875 6.09765625 C5.43469849 6.10551147 5.43469849 6.10551147 4.17651367 6.11352539 C2 6 2 6 -1 5 C-0.67 3.35 -0.34 1.7 0 0 Z " fill="#DDDC9C" transform="translate(28,60)"/>
<path d="M0 0 C0.33 0.66 0.66 1.32 1 2 C0.67 2.66 0.34 3.32 0 4 C0.78375 3.505 1.5675 3.01 2.375 2.5 C5 1 5 1 7 1 C6.731875 1.66 6.46375 2.32 6.1875 3 C4.74351149 6.64797099 3.37758552 10.32643861 2 14 C13.22 14 24.44 14 36 14 C36 14.33 36 14.66 36 15 C34.86981445 15.01981934 33.73962891 15.03963867 32.57519531 15.06005859 C28.37803036 15.1361888 24.18120874 15.22489479 19.984375 15.31738281 C18.16868879 15.35564191 16.35292759 15.39050017 14.53710938 15.421875 C11.92550877 15.4675923 9.31442312 15.52557536 6.703125 15.5859375 C5.89256653 15.59748871 5.08200806 15.60903992 4.24688721 15.62094116 C-1.20058756 15.71129106 -1.20058756 15.71129106 -6 18 C-7.42662219 20.85324437 -7.31033868 22.83454549 -7 26 C-5.12230858 28.84920053 -5.12230858 28.84920053 -3 31 C-5.23288365 30.61502006 -6.83656302 30.10506663 -8.75 28.875 C-10.74090305 25.88864543 -10.361727 23.49669429 -10 20 C-7.8 15.4 -7.8 15.4 -5 14 C-4.42145148 12.04722151 -4.42145148 12.04722151 -4.0625 9.75 C-3.3089628 5.97025738 -2.25935897 3.18364218 0 0 Z " fill="#BEBEBE" transform="translate(25,23)"/>
<path d="M0 0 C0.99 0.33 1.98 0.66 3 1 C3.48543689 7.31067961 3.48543689 7.31067961 1.4375 10.21875 C-1.90191799 12.65909392 -4.16218578 12.40140053 -8.25 12.25 C-9.51328125 12.21390625 -10.7765625 12.1778125 -12.078125 12.140625 C-13.52445313 12.07101563 -13.52445313 12.07101563 -15 12 C-15 10.35 -15 8.7 -15 7 C-19.95 7 -24.9 7 -30 7 C-30 6.67 -30 6.34 -30 6 C-26.535 5.505 -26.535 5.505 -23 5 C-23 4.67 -23 4.34 -23 4 C-17.39 4 -11.78 4 -6 4 C-6 4.66 -6 5.32 -6 6 C-4.02 6 -2.04 6 0 6 C0 4.02 0 2.04 0 0 Z " fill="#929270" transform="translate(56,62)"/>
<path d="M0 0 C3.92582871 1.30860957 6.3987937 2.74849213 9 6 C9.75 8.75 9.75 8.75 10 11 C8 9.625 8 9.625 6 8 C6 7.34 6 6.68 6 6 C3.41554227 5.8918134 0.83562648 5.81262763 -1.75 5.75 C-2.84441406 5.69972656 -2.84441406 5.69972656 -3.9609375 5.6484375 C-7.41074534 5.58571372 -9.57040682 5.71179192 -12.46875 7.65625 C-14.32045956 10.49049932 -14.58976233 12.38500902 -14.75 15.75 C-14.80671875 16.73484375 -14.8634375 17.7196875 -14.921875 18.734375 C-14.94765625 19.48203125 -14.9734375 20.2296875 -15 21 C-16.98 21 -18.96 21 -21 21 C-20.72231885 14.47449303 -18.34270776 9.87944692 -14 5 C-9.45008894 2.35277902 -5.20824301 1.53145337 0 1 C0 0.67 0 0.34 0 0 Z " fill="#ADADAD" transform="translate(48,16)"/>
<path d="M0 0 C1 1 1 1 1.375 3.3125 C1 6 1 6 -1.0625 8.3125 C-4.75187872 10.43193033 -6.80224886 10.59967873 -11 10 C-13.9375 8.1875 -13.9375 8.1875 -16 6 C-16 5.01 -16 4.02 -16 3 C-14.08802961 2.29954544 -12.17019565 1.615081 -10.25 0.9375 C-9.18265625 0.55464844 -8.1153125 0.17179687 -7.015625 -0.22265625 C-4.06770601 -0.98254728 -2.7689093 -1.13214749 0 0 Z " fill="#C5C48A" transform="translate(59,42)"/>
<path d="M0 0 C5.65020618 0.60108576 10.66164461 2.07528683 16 4 C15.46081337 6.55849344 15.19024496 7.79512082 13.375 9.75 C10.02036422 11.51559778 7.74177057 11.45951568 4 11 C1 9.4375 1 9.4375 -1 7 C-0.8125 3.25 -0.8125 3.25 0 0 Z " fill="#E7E6A3" transform="translate(24,41)"/>
<path d="M0 0 C3.03863942 2.49693212 3.6828512 4.78755001 4.5625 8.5625 C5.45022843 12.72806987 5.45022843 12.72806987 8 16 C7.505 17.485 7.505 17.485 7 19 C7 18.34 7 17.68 7 17 C-13.295 16.505 -13.295 16.505 -34 16 C-34 15.67 -34 15.34 -34 15 C-23.44 14.67 -12.88 14.34 -2 14 C-2.33 11.03 -2.66 8.06 -3 5 C-2.01 4.67 -1.02 4.34 0 4 C0 2.68 0 1.36 0 0 Z " fill="#373737" transform="translate(57,23)"/>
<path d="M0 0 C1.9375 0.6875 1.9375 0.6875 2.9375 2.6875 C3.36773798 6.55964182 3.25419086 8.21246371 1.0625 11.5 C-1.81767184 14.46488277 -2.46906711 14.66890774 -6.68603516 14.80102539 C-8.24121993 14.80086679 -9.79641017 14.79520195 -11.3515625 14.78515625 C-12.57919815 14.78303383 -12.57919815 14.78303383 -13.83163452 14.78086853 C-16.45029325 14.7752629 -19.06886704 14.76270948 -21.6875 14.75 C-23.46093627 14.74498572 -25.23437387 14.74042269 -27.0078125 14.73632812 C-31.35940782 14.72529164 -35.7109395 14.70802325 -40.0625 14.6875 C-40.0625 14.3575 -40.0625 14.0275 -40.0625 13.6875 C-35.7725 13.6875 -31.4825 13.6875 -27.0625 13.6875 C-27.0625 13.0275 -27.0625 12.3675 -27.0625 11.6875 C-26.4025 12.0175 -25.7425 12.3475 -25.0625 12.6875 C-23.6890365 12.83754973 -22.3096474 12.93588006 -20.9296875 13.00390625 C-20.12402344 13.04580078 -19.31835938 13.08769531 -18.48828125 13.13085938 C-17.64652344 13.17017578 -16.80476563 13.20949219 -15.9375 13.25 C-14.66326172 13.31477539 -14.66326172 13.31477539 -13.36328125 13.38085938 C-11.26321777 13.48704236 -9.16288052 13.58778497 -7.0625 13.6875 C-7.0625 13.0275 -7.0625 12.3675 -7.0625 11.6875 C-6.4025 11.254375 -5.7425 10.82125 -5.0625 10.375 C-2.79566267 8.84947862 -2.79566267 8.84947862 -2.75 6.1875 C-2.99508508 3.56288454 -2.99508508 3.56288454 -4.0625 0.6875 C-2.0625 -0.3125 -2.0625 -0.3125 0 0 Z " fill="#272726" transform="translate(62.0625,39.3125)"/>
<path d="M0 0 C7.92 0 15.84 0 24 0 C23.67 0.99 23.34 1.98 23 3 C15.74 3 8.48 3 1 3 C-0.49403054 5.98806107 -1.79310745 8.89656201 -3 12 C-3.6875 10.25 -3.6875 10.25 -4 8 C-2.625 6 -2.625 6 -1 4 C-0.67 2.68 -0.34 1.36 0 0 Z " fill="#949490" transform="translate(27,56)"/>
<path d="M0 0 C1.65 0 3.3 0 5 0 C5.12375 0.639375 5.2475 1.27875 5.375 1.9375 C5.58125 2.618125 5.7875 3.29875 6 4 C6.66 4.33 7.32 4.66 8 5 C8 3.35 8 1.7 8 0 C8.66 0 9.32 0 10 0 C10 4.62 10 9.24 10 14 C9.01 14 8.02 14 7 14 C7.0928125 12.329375 7.0928125 12.329375 7.1875 10.625 C7.125625 9.42875 7.06375 8.2325 7 7 C3.51321064 4.67547376 1.93032429 4.70226266 -2.19921875 4.5859375 C-3.40771484 4.54726563 -4.61621094 4.50859375 -5.86132812 4.46875 C-7.12396484 4.4378125 -8.38660156 4.406875 -9.6875 4.375 C-10.96173828 4.33632813 -12.23597656 4.29765625 -13.54882812 4.2578125 C-16.69907292 4.16342314 -19.84930991 4.0778417 -23 4 C-23 3.67 -23 3.34 -23 3 C-15.74 2.67 -8.48 2.34 -1 2 C-0.67 1.34 -0.34 0.68 0 0 Z " fill="#4D4D47" transform="translate(51,56)"/>
<path d="M0 0 C0.99 0 1.98 0 3 0 C3.06058594 0.74765625 3.12117188 1.4953125 3.18359375 2.265625 C3.26738281 3.25046875 3.35117187 4.2353125 3.4375 5.25 C3.51871094 6.22453125 3.59992187 7.1990625 3.68359375 8.203125 C4.04599612 11.67424746 4.04599612 11.67424746 5 15 C5.99 15.33 6.98 15.66 8 16 C3.71 16 -0.58 16 -5 16 C-4.01 15.01 -3.02 14.02 -2 13 C-1.45861733 10.33410992 -1.45861733 10.33410992 -1.375 7.4375 C-1.08071749 2.16143498 -1.08071749 2.16143498 0 0 Z " fill="#A9A9A9" transform="translate(40,0)"/>
<path d="M0 0 C4.62 0 9.24 0 14 0 C13.67 1.65 13.34 3.3 13 5 C8.71 5 4.42 5 0 5 C0 3.35 0 1.7 0 0 Z " fill="#E4E3A3" transform="translate(42,69)"/>
<path d="M0 0 C4.62 0 9.24 0 14 0 C14 1.65 14 3.3 14 5 C12.04174127 5.02694851 10.08337774 5.04637218 8.125 5.0625 C7.03445312 5.07410156 5.94390625 5.08570312 4.8203125 5.09765625 C2 5 2 5 0 4 C0 2.68 0 1.36 0 0 Z " fill="#EAE9A6" transform="translate(27,69)"/>
<path d="M0 0 C1 1 1 1 1.25 3.375 C1 6 1 6 -0.1875 7.875 C-2 9 -2 9 -4.6875 8.6875 C-5.450625 8.460625 -6.21375 8.23375 -7 8 C-7 7.34 -7 6.68 -7 6 C-6.34 6 -5.68 6 -5 6 C-5 5.01 -5 4.02 -5 3 C-6.65 2.67 -8.3 2.34 -10 2 C-6.24222241 -0.50518506 -4.27088222 -1.42362741 0 0 Z " fill="#E9E8A4" transform="translate(59,42)"/>
<path d="M0 0 C0.33 0 0.66 0 1 0 C1.60944427 7.19144236 1.60944427 7.19144236 -0.96679688 10.609375 C-5.08303225 13.853594 -7.93265709 13.6469645 -13.01953125 13.48828125 C-13.87810226 13.48120651 -14.73667328 13.47413177 -15.6212616 13.46684265 C-18.35257603 13.43894402 -21.08180958 13.37621691 -23.8125 13.3125 C-25.6685901 13.28741114 -27.52471246 13.26459899 -29.38085938 13.24414062 C-33.92136972 13.18913253 -38.46033257 13.10289364 -43 13 C-43 12.67 -43 12.34 -43 12 C-41.35801636 11.99383667 -41.35801636 11.99383667 -39.68286133 11.98754883 C-35.61028355 11.96572948 -31.53866809 11.91141169 -27.46655273 11.84741211 C-25.70623009 11.82425636 -23.94576939 11.80984206 -22.18530273 11.80444336 C-19.65000621 11.79513558 -17.11687372 11.75410952 -14.58203125 11.70703125 C-13.79850784 11.7109639 -13.01498444 11.71489655 -12.2077179 11.71894836 C-8.02693607 11.60802914 -6.42290224 11.33105267 -3.0144043 8.6628418 C-0.75915607 5.68162832 -0.25763412 3.69275575 0 0 Z " fill="#636363" transform="translate(65,42)"/>
<path d="M0 0 C0.33 0 0.66 0 1 0 C1 5.94 1 11.88 1 18 C1.99 18 2.98 18 4 18 C4.33 17.01 4.66 16.02 5 15 C5.3403125 16.2065625 5.3403125 16.2065625 5.6875 17.4375 C6.120625 18.283125 6.55375 19.12875 7 20 C9.54775306 20.89386164 9.54775306 20.89386164 12 21 C12 21.33 12 21.66 12 22 C5.07 21.505 5.07 21.505 -2 21 C-2 19.68 -2 18.36 -2 17 C-1.34 17 -0.68 17 0 17 C0 11.39 0 5.78 0 0 Z " fill="#6C6C6B" transform="translate(21,56)"/>
<path d="M0 0 C1.6874269 0.00015917 3.37485866 0.00585622 5.06225586 0.01586914 C6.39189613 0.01799156 6.39189613 0.01799156 7.74839783 0.02015686 C10.59133215 0.02577324 13.43418892 0.03832848 16.27709961 0.05102539 C18.19962452 0.05603828 20.12215065 0.06060155 22.04467773 0.06469727 C26.7680151 0.07574798 31.49129419 0.09302356 36.21459961 0.11352539 C36.21459961 0.44352539 36.21459961 0.77352539 36.21459961 1.11352539 C35.10947021 1.12810791 34.00434082 1.14269043 32.86572266 1.15771484 C28.76724822 1.21566805 24.66932494 1.29290058 20.57128906 1.37597656 C18.79729149 1.40924003 17.02318771 1.43726757 15.24902344 1.45996094 C12.69932785 1.49348141 10.15060669 1.54579404 7.60131836 1.60180664 C6.80747238 1.60819656 6.0136264 1.61458649 5.19572449 1.62117004 C0.93727765 1.65879822 0.93727765 1.65879822 -2.68457031 3.64550781 C-3.04784424 4.12995361 -3.41111816 4.61439941 -3.78540039 5.11352539 C-4.44540039 5.11352539 -5.10540039 5.11352539 -5.78540039 5.11352539 C-4.66230655 0.13982409 -4.66230655 0.13982409 0 0 Z " fill="#0F0F0F" transform="translate(23.785400390625,38.886474609375)"/>
<path d="M0 0 C3.92582871 1.30860957 6.3987937 2.74849213 9 6 C9.75 8.75 9.75 8.75 10 11 C8 9.625 8 9.625 6 8 C6 7.34 6 6.68 6 6 C1.05 5.67 -3.9 5.34 -9 5 C-5.81237635 2.87491756 -3.73487777 2.4979837 0 2 C0 1.34 0 0.68 0 0 Z " fill="#949494" transform="translate(48,16)"/>
<path d="M0 0 C1.04702186 3.7264085 1.07442057 7.13013042 1 11 C0.360625 11.28875 -0.27875 11.5775 -0.9375 11.875 C-3.15206079 12.82823451 -3.15206079 12.82823451 -4 15 C-4.44143161 18.97288453 -4.32030013 20.53956856 -2 23.875 C-1.34 24.57625 -0.68 25.2775 0 26 C-2.23288365 25.61502006 -3.83656302 25.10506663 -5.75 23.875 C-7.74090305 20.88864543 -7.361727 18.49669429 -7 15 C-4.8 10.4 -4.8 10.4 -2 9 C-1.31270746 6.88153715 -1.31270746 6.88153715 -0.875 4.4375 C-0.70742188 3.61121094 -0.53984375 2.78492188 -0.3671875 1.93359375 C-0.24601562 1.29550781 -0.12484375 0.65742188 0 0 Z " fill="#A5A5A5" transform="translate(22,28)"/>
<path d="M0 0 C0.66 0.33 1.32 0.66 2 1 C3.1762957 5.28065501 3.47477035 8.91481062 1.6875 13 C0 15 0 15 -2 16 C-2.33 21.61 -2.66 27.22 -3 33 C-3.33 33 -3.66 33 -4 33 C-4.11644156 29.91698584 -4.18732432 26.83453877 -4.25 23.75 C-4.28351562 22.87730469 -4.31703125 22.00460938 -4.3515625 21.10546875 C-4.45216882 14.51575506 -4.45216882 14.51575506 -2 11.71875 C-1.34 11.1515625 -0.68 10.584375 0 10 C0.48026917 7.4149692 0.48026917 7.4149692 0.25 4.75 C0.21390625 3.85796875 0.1778125 2.9659375 0.140625 2.046875 C0.09421875 1.37140625 0.0478125 0.6959375 0 0 Z " fill="#060606" transform="translate(65,40)"/>
<path d="M0 0 C-1.62339805 1.70884005 -3.29319053 3.37446717 -5 5 C-5.66 5 -6.32 5 -7 5 C-7.66 6.32 -8.32 7.64 -9 9 C-9.66 9 -10.32 9 -11 9 C-9.25 2.25 -9.25 2.25 -7 0 C-3.99340864 -1.066855 -3.14820941 -1.04940314 0 0 Z " fill="#D9D9D9" transform="translate(36,18)"/>
<path d="M0 0 C1.65 0 3.3 0 5 0 C4.45276317 3.37462715 3.9451 5.08235 2 8 C1.75944532 10.05709596 1.75944532 10.05709596 1.875 12.1875 C1.91625 13.445625 1.9575 14.70375 2 16 C1.34 16 0.68 16 0 16 C0 10.72 0 5.44 0 0 Z " fill="#D9D9D9" transform="translate(22,56)"/>
<path d="M0 0 C4.29 0 8.58 0 13 0 C12.67 0.99 12.34 1.98 12 3 C8.04 3 4.08 3 0 3 C0 2.01 0 1.02 0 0 Z " fill="#7F7F7F" transform="translate(38,56)"/>
<path d="M0 0 C2.31 0 4.62 0 7 0 C7 1.65 7 3.3 7 5 C4.69 5 2.38 5 0 5 C0 3.35 0 1.7 0 0 Z " fill="#F2F1AB" transform="translate(42,61)"/>
<path d="M0 0 C0.99 0.33 1.98 0.66 3 1 C3.36923077 7.52307692 3.36923077 7.52307692 1.5 9.9375 C1.005 10.288125 0.51 10.63875 0 11 C0 9.68 0 8.36 0 7 C-1.65 7 -3.3 7 -5 7 C-5 6.67 -5 6.34 -5 6 C-3.35 6 -1.7 6 0 6 C0 4.02 0 2.04 0 0 Z " fill="#B2B185" transform="translate(56,62)"/>
<path d="M0 0 C4.95 0 9.9 0 15 0 C14.01 0.495 14.01 0.495 13 1 C13 2.65 13 4.3 13 6 C12.01 5.67 11.02 5.34 10 5 C10 3.68 10 2.36 10 1 C6.7 1 3.4 1 0 1 C0 0.67 0 0.34 0 0 Z " fill="#2D2D2D" transform="translate(46,55)"/>
<path d="M0 0 C0.042721 1.66611905 0.04063832 3.33382885 0 5 C-0.33 5.33 -0.66 5.66 -1 6 C-3.69082872 5.82364548 -6.32851446 5.38164079 -9 5 C-1.5 0 -1.5 0 0 0 Z " fill="#2A2A2A" transform="translate(61,70)"/>
<path d="M0 0 C1.98 0 3.96 0 6 0 C6 1.65 6 3.3 6 5 C3.03 4.505 3.03 4.505 0 4 C0 2.68 0 1.36 0 0 Z " fill="#F2F1AB" transform="translate(27,61)"/>
<path d="M0 0 C0.33 0.66 0.66 1.32 1 2 C3.64 2 6.28 2 9 2 C9 2.99 9 3.98 9 5 C6.03 5 3.06 5 0 5 C0 3.35 0 1.7 0 0 Z " fill="#A1A171" transform="translate(23,43)"/>
<path d="M0 0 C0.33 0.66 0.66 1.32 1 2 C1.99 2 2.98 2 4 2 C3.34 3.32 2.68 4.64 2 6 C0.35 5.67 -1.3 5.34 -3 5 C-3 4.34 -3 3.68 -3 3 C-2.34 3 -1.68 3 -1 3 C-0.67 2.01 -0.34 1.02 0 0 Z " fill="#F2F1AB" transform="translate(55,45)"/>
<path d="M0 0 C1.98 0 3.96 0 6 0 C6 1.32 6 2.64 6 4 C4.02 4 2.04 4 0 4 C0 2.68 0 1.36 0 0 Z " fill="#F1F0A9" transform="translate(27,69)"/>
<path d="M0 0 C1.98 0 3.96 0 6 0 C6 1.32 6 2.64 6 4 C4.02 4 2.04 4 0 4 C0 2.68 0 1.36 0 0 Z " fill="#F1F0A9" transform="translate(50,69)"/>
<path d="M0 0 C0.33 0 0.66 0 1 0 C1.9765625 6.0546875 1.9765625 6.0546875 2 8 C1.34 8.66 0.68 9.32 0 10 C-0.99 10 -1.98 10 -3 10 C-3 9.34 -3 8.68 -3 8 C-2.34 8 -1.68 8 -1 8 C-1.20625 7.4225 -1.4125 6.845 -1.625 6.25 C-2.08661261 3.48032433 -1.42944945 2.35438733 0 0 Z " fill="#B7B794" transform="translate(25,64)"/>
<path d="M0 0 C2.31 0 4.62 0 7 0 C7 1.32 7 2.64 7 4 C4.69 3.67 2.38 3.34 0 3 C0 2.01 0 1.02 0 0 Z " fill="#F6F5AE" transform="translate(34,62)"/>
<path d="M0 0 C0.99 0.495 0.99 0.495 2 1 C2.4140625 3.28515625 2.4140625 3.28515625 2.625 6.0625 C2.69976562 6.98160156 2.77453125 7.90070312 2.8515625 8.84765625 C2.92503906 9.91306641 2.92503906 9.91306641 3 11 C2.34 11 1.68 11 1 11 C0.4254048 7.26513121 0 3.78706732 0 0 Z " fill="#5A5A5A" transform="translate(57,23)"/>
<path d="M0 0 C0.33 0 0.66 0 1 0 C1.125 6.75 1.125 6.75 0 9 C-0.66 9 -1.32 9 -2 9 C-1.125 2.25 -1.125 2.25 0 0 Z " fill="#E2E2E2" transform="translate(24,28)"/>
<path d="M0 0 C1.98 0 3.96 0 6 0 C5.67 0.99 5.34 1.98 5 3 C3.02 3 1.04 3 -1 3 C-0.67 2.01 -0.34 1.02 0 0 Z " fill="#686868" transform="translate(45,56)"/>
<path d="M0 0 C0.66 0 1.32 0 2 0 C2.33 2.64 2.66 5.28 3 8 C2.01 8 1.02 8 0 8 C0 5.36 0 2.72 0 0 Z " fill="#797979" transform="translate(41,5)"/>
</svg>
